<svg width="97" height="154" viewBox="0 0 97 154" fill="none" xmlns="http://www.w3.org/2000/svg">
<path d="M55.4667 107.697L55.463 52.0502L63.7279 52.1606M55.4597 3.35958C108.323 -2.90416 106.207 53.9426 63.7279 52.1606M63.7279 52.1606L91.1883 108.493" stroke="#F1F1F1" stroke-width="3" stroke-linecap="square"/>
<path d="M41.9916 3.67697L41.9953 59.3234L33.7304 59.2129M41.9985 108.014C-10.8652 114.278 -8.749 57.4309 33.7304 59.2129M33.7304 59.2129L6.26995 2.88096" stroke="#F1F1F1" stroke-width="3" stroke-linecap="square"/>
<path d="M13.5535 148.477L13.5526 134.293L18.4486 134.293C19.3446 134.293 20.0326 134.493 20.5126 134.893C21.0086 135.293 21.2567 135.885 21.2567 136.669L21.2569 138.925C21.2569 139.709 21.041 140.349 20.609 140.845C20.177 141.325 19.5371 141.589 18.6891 141.637C19.2331 141.685 19.6171 141.861 19.8411 142.165C20.0811 142.469 20.2971 142.941 20.4892 143.581L21.8575 148.477L19.3135 148.477L18.1852 143.749C18.0732 143.349 17.9451 142.997 17.8011 142.693C17.6571 142.389 17.4251 142.237 17.1051 142.237L15.9291 142.237L15.9295 148.477L13.5535 148.477ZM15.929 140.629L17.465 140.629C18.025 140.629 18.417 140.485 18.641 140.197C18.8809 139.909 19.0009 139.469 19.0009 138.877L19.0008 137.077C19.0007 136.549 18.8887 136.165 18.6647 135.925C18.4567 135.685 18.1287 135.565 17.6807 135.565L15.9287 135.565L15.929 140.629ZM28.2413 148.668C27.4253 148.668 26.7453 148.581 26.2013 148.405C25.6733 148.213 25.2733 147.853 25.0012 147.325C24.7452 146.797 24.6172 146.005 24.6171 144.949L24.6167 139.381C24.6166 138.229 24.9046 137.445 25.4806 137.029C26.0565 136.597 26.9525 136.381 28.1685 136.38C29.3845 136.38 30.2805 136.596 30.8566 137.028C31.4326 137.444 31.7206 138.228 31.7207 139.38L31.7209 142.548L26.8729 142.549L26.8731 145.837C26.8732 146.429 26.9612 146.845 27.1372 147.084C27.3292 147.324 27.6893 147.444 28.2173 147.444C28.6973 147.444 29.0252 147.332 29.2012 147.108C29.3772 146.868 29.4652 146.444 29.4652 145.836L29.465 144.084L31.721 144.084L31.7211 144.924C31.7212 145.964 31.5852 146.756 31.3132 147.3C31.0573 147.844 30.6733 148.212 30.1613 148.404C29.6493 148.58 29.0093 148.668 28.2413 148.668ZM26.8729 141.493L29.4649 141.492L29.4647 139.284C29.4647 138.74 29.3767 138.348 29.2006 138.108C29.0246 137.868 28.6806 137.748 28.1686 137.748C27.6726 137.748 27.3286 137.868 27.1366 138.108C26.9607 138.349 26.8727 138.741 26.8727 139.285L26.8729 141.493ZM34.8749 148.476L34.8741 136.596L36.7941 136.596L36.9862 137.964C37.1622 137.5 37.4501 137.124 37.8501 136.836C38.2661 136.532 38.7541 136.38 39.3141 136.38C40.2261 136.38 40.8741 136.572 41.2581 136.956C41.6421 137.34 41.8502 137.9 41.8822 138.636L41.5942 138.636C41.7062 137.996 41.9862 137.46 42.4341 137.027C42.8981 136.595 43.4661 136.379 44.1381 136.379C45.1621 136.379 45.8501 136.627 46.2021 137.123C46.5702 137.603 46.7542 138.331 46.7543 139.307L46.7549 148.475L44.4989 148.475L44.4983 139.547C44.4983 138.971 44.4022 138.571 44.2102 138.347C44.0342 138.123 43.7382 138.011 43.3222 138.011C42.9542 138.011 42.6422 138.115 42.3862 138.323C42.1302 138.515 41.9782 138.772 41.9303 139.092L41.9309 148.476L39.6749 148.476L39.6743 139.428C39.6743 138.916 39.5862 138.556 39.4102 138.348C39.2502 138.124 38.9462 138.012 38.4982 138.012C38.1302 138.012 37.8342 138.1 37.6102 138.276C37.4022 138.436 37.2422 138.636 37.1303 138.876L37.1309 148.476L34.8749 148.476ZM50.2407 148.475L50.2398 134.291L55.1358 134.291C56.0318 134.291 56.7198 134.491 57.1998 134.89C57.6958 135.29 57.9439 135.882 57.9439 136.666L57.9441 138.922C57.9441 139.706 57.7282 140.346 57.2962 140.842C56.8642 141.323 56.2242 141.587 55.3762 141.635C55.9202 141.683 56.3043 141.859 56.5283 142.163C56.7683 142.467 56.9843 142.939 57.1764 143.579L58.5447 148.474L56.0007 148.475L54.8724 143.747C54.7604 143.347 54.6323 142.995 54.4883 142.691C54.3443 142.387 54.1123 142.235 53.7923 142.235L52.6163 142.235L52.6167 148.475L50.2407 148.475ZM52.6162 140.627L54.1522 140.627C54.7122 140.627 55.1042 140.483 55.3281 140.195C55.5681 139.907 55.6881 139.467 55.6881 138.875L55.6879 137.075C55.6879 136.547 55.5759 136.163 55.3519 135.923C55.1438 135.683 54.8158 135.563 54.3678 135.563L52.6158 135.563L52.6162 140.627ZM64.8805 148.666C64.0965 148.666 63.4325 148.57 62.8885 148.378C62.3605 148.17 61.9605 147.794 61.6884 147.25C61.4324 146.706 61.3043 145.922 61.3043 144.898L61.3039 139.666C61.3038 138.466 61.5918 137.618 62.1678 137.122C62.7437 136.626 63.6477 136.378 64.8797 136.378C66.0957 136.378 66.9917 136.626 67.5678 137.122C68.1438 137.602 68.4318 138.45 68.4319 139.666L68.4323 144.898C68.4323 145.922 68.2964 146.706 68.0244 147.25C67.7685 147.794 67.3765 148.17 66.8485 148.378C66.3205 148.57 65.6645 148.666 64.8805 148.666ZM64.8804 147.298C65.3444 147.298 65.6724 147.178 65.8644 146.938C66.0724 146.682 66.1764 146.234 66.1763 145.594L66.1759 139.474C66.1759 138.85 66.0798 138.41 65.8878 138.154C65.6958 137.898 65.3598 137.77 64.8798 137.77C64.4158 137.77 64.0798 137.898 63.8718 138.154C63.6638 138.394 63.5599 138.834 63.5599 139.474L63.5603 145.594C63.5604 146.234 63.6644 146.682 63.8724 146.938C64.0804 147.178 64.4164 147.298 64.8804 147.298ZM71.7027 148.474L71.7019 136.594L73.6219 136.593L73.814 137.961C73.99 137.497 74.2779 137.121 74.6779 136.833C75.0939 136.529 75.5819 136.377 76.1419 136.377C77.0539 136.377 77.7019 136.569 78.0859 136.953C78.47 137.337 78.678 137.897 78.71 138.633L78.422 138.633C78.534 137.993 78.814 137.457 79.2619 137.025C79.7259 136.593 80.2939 136.377 80.9659 136.377C81.9899 136.377 82.6779 136.625 83.0299 137.121C83.398 137.601 83.582 138.329 83.5821 139.305L83.5827 148.473L81.3267 148.473L81.3261 139.545C81.3261 138.969 81.23 138.569 81.038 138.345C80.862 138.121 80.566 138.009 80.15 138.009C79.782 138.009 79.47 138.113 79.214 138.321C78.958 138.513 78.8061 138.769 78.7581 139.089L78.7587 148.473L76.5027 148.473L76.5021 139.425C76.5021 138.913 76.414 138.553 76.238 138.345C76.078 138.121 75.774 138.009 75.326 138.009C74.958 138.009 74.662 138.097 74.438 138.273C74.23 138.433 74.07 138.633 73.9581 138.873L73.9587 148.473L71.7027 148.474Z" fill="#F1F1F1"/>
</svg>
